<?xml version="1.0" encoding="utf-8"?>
<!-- Generator: Adobe Illustrator 27.7.0, SVG Export Plug-In . SVG Version: 6.00 Build 0)  -->
<svg version="1.1" id="Capa_1" xmlns="http://www.w3.org/2000/svg" xmlns:xlink="http://www.w3.org/1999/xlink" x="0px" y="0px"
	 viewBox="0 0 100 100" style="enable-background:new 0 0 100 100;" xml:space="preserve">
<style type="text/css">
	.st0{fill:#FFFFFF;}
</style>
<g>
	<g>
		<g>
			<path class="st0" d="M82.4,62.7c-0.3,0-0.6-0.1-0.9-0.4c-0.4-0.5-0.4-1.2,0.1-1.6c3.7-3.1,5.8-7.7,5.8-12.5
				c0-5.2-2.4-10-6.5-13.2c-0.5-0.4-0.6-1.1-0.2-1.6c0.4-0.5,1.1-0.6,1.6-0.2c4.7,3.6,7.4,9,7.4,15c0,5.5-2.4,10.7-6.6,14.3
				C82.9,62.7,82.6,62.7,82.4,62.7z"/>
		</g>
		<g>
			<path class="st0" d="M87.5,69.9c-0.3,0-0.6-0.1-0.9-0.4c-0.4-0.5-0.4-1.2,0.1-1.6c5.7-4.9,8.9-12,8.9-19.5
				c0-8.1-3.7-15.5-10.2-20.4c-0.5-0.4-0.6-1.1-0.2-1.6c0.4-0.5,1.1-0.6,1.6-0.2C94,31.5,98,39.6,98,48.4c0,8.2-3.6,15.9-9.7,21.2
				C88,69.8,87.8,69.9,87.5,69.9z"/>
		</g>
	</g>
	<g>
		<g>
			<path class="st0" d="M17.9,62.7c-0.3,0-0.5-0.1-0.7-0.3c-4.2-3.6-6.6-8.8-6.6-14.3c0-5.9,2.7-11.4,7.4-15
				c0.5-0.4,1.2-0.3,1.6,0.2c0.4,0.5,0.3,1.2-0.2,1.6c-4.2,3.2-6.5,7.9-6.5,13.2c0,4.8,2.1,9.4,5.8,12.5c0.5,0.4,0.5,1.1,0.1,1.6
				C18.5,62.6,18.2,62.7,17.9,62.7z"/>
		</g>
		<g>
			<path class="st0" d="M12.7,69.9c-0.3,0-0.5-0.1-0.7-0.3c-6.2-5.3-9.7-13-9.7-21.2c0-8.8,4-16.9,11.1-22.3
				c0.5-0.4,1.2-0.3,1.6,0.2c0.4,0.5,0.3,1.2-0.2,1.6C8.2,32.8,4.5,40.3,4.5,48.4c0,7.5,3.3,14.6,8.9,19.5c0.5,0.4,0.5,1.1,0.1,1.6
				C13.4,69.7,13,69.9,12.7,69.9z"/>
		</g>
	</g>
	<path class="st0" d="M72.9,96.8H27.4c-0.6,0-1-0.5-1-1.1V4.4c0-0.6,0.5-1,1-1h45.6c0.6,0,1,0.5,1,1v91.3
		C74,96.3,73.5,96.8,72.9,96.8z M70.5,85V11.9c0-0.6-0.5-1-1.1-1H30.8c-0.6,0-1,0.5-1,1V85c0,0.6,0.5,1.1,1,1.1h38.6
		C70,86,70.5,85.6,70.5,85z M60.8,6.7L60.8,6.7c0-0.4-0.3-0.8-0.8-0.8H40.2c-0.4,0-0.8,0.3-0.8,0.8l0,0c0,0.4,0.3,0.8,0.8,0.8h19.9
		C60.5,7.4,60.8,7.1,60.8,6.7z"/>
</g>
<g>
</g>
<g>
</g>
<g>
</g>
<g>
</g>
<g>
</g>
<g>
</g>
<g>
</g>
<g>
</g>
<g>
</g>
<g>
</g>
<g>
</g>
<g>
</g>
<g>
</g>
<g>
</g>
<g>
</g>
</svg>
