<?xml version="1.0" encoding="utf-8"?>
<!-- Generator: Adobe Illustrator 27.2.0, SVG Export Plug-In . SVG Version: 6.00 Build 0)  -->
<svg version="1.1" id="Layer_1" xmlns="http://www.w3.org/2000/svg" xmlns:xlink="http://www.w3.org/1999/xlink" x="0px" y="0px"
	 viewBox="0 0 167 34" style="enable-background:new 0 0 167 34;" xml:space="preserve">
<style type="text/css">
	.st0{fill:#FFFFFF;}
</style>
<g>
	<path class="st0" d="M119.4,6.1c-1.7,0-3.4,0.7-4.6,1.9c-1.2,1.2-1.9,2.9-1.9,4.6s0.7,3.4,1.9,4.6c1.2,1.2,2.9,1.9,4.6,1.9
		c3.5,0,7,0,10.6,0c1.2,0,2.2,1,2.2,2.2c0,1.2-1,2.2-2.2,2.2c-5.3,0-10.7,0-16,0v4.4h16.5c1.8,0,3.5-0.7,4.7-2
		c1.3-1.3,2-2.9,1.9-4.7c0-1.8-0.7-3.5-2-4.7s-3-1.9-4.7-1.9c-3.5,0-7,0-10.6,0c-1.1,0-2.1-0.9-2.1-2.1c0-1.1,0.9-2.1,2.1-2.1
		c5.4,0,10.9,0,16.3,0c0-1.5,0-3,0-4.4C130.6,6.1,125,6.1,119.4,6.1z"/>
	<path class="st0" d="M21.2,6.1v14.5L5.3,6.1H0v21.8h5.3V13.4l15.9,14.5h5.3V6.1H21.2z"/>
	<path class="st0" d="M53.6,6.1h-5.2v21.8h18v-4.4H53.6L53.6,6.1z"/>
	<path class="st0" d="M159.9,6.1L149,15.4V6.1h-5.2v21.8h5.2v-9.7l11.2,9.7h6.8l-12.8-11.2h0L167,6.1H159.9z"/>
	<path class="st0" d="M101,6.1h5.2v21.8H101V6.1z"/>
	<path class="st0" d="M90.4,19.1v-4.4H78.8v-4.1h15.1V6.1H73.5v21.8h5.2v-8.8L90.4,19.1z"/>
	<path class="st0" d="M34.9,6.1h5.2v21.8h-5.2V6.1z"/>
</g>
</svg>
